# xmcd CD database file
#
# Track frame offsets:
#	150
#	18675
#	31692
#	51431
#	61902
#	89162
#	332550
#
# Disc length: 4440 seconds
#
# Revision: 0
# Processed by: cddbd v1.5PL3 Copyright (c) Steve Scherf et al.
# Submitted via: CDex 1.51
#
DISCID=5c115607
DTITLE=ORANGE RANGE - ビバ★ロック
DYEAR=2003
DGENRE=JPop
TTITLE0=ビバ★ロック
TTITLE1=べろシティー3000
TTITLE2=ビバ★ロック 〜ryukyudisco remix〜
TTITLE3=渚のロコガール
TTITLE4=ビバ★ロック 〜japanese side〜
TTITLE5=データ1
TTITLE6=データ2
EXTD=YEAR: 2003
EXTT0=
EXTT1=
EXTT2=
EXTT3=
EXTT4=
EXTT5=
EXTT6=
PLAYORDER=
